<?xml version="1.0" encoding="UTF-8"?>
<svg id="Capa_1" data-name="Capa 1" xmlns="http://www.w3.org/2000/svg" viewBox="0 0 500 500">
  <defs>
    <style>
      .cls-1 {
        fill: #242b51;
      }

      .cls-2 {
        fill: #989899;
        stroke: #989899;
        stroke-miterlimit: 10;
        stroke-width: 5px;
      }
    </style>
  </defs>
  <path class="cls-2" d="m281.87,56.32l75.2-43.4-5.6,32.15c9.44,3.6,96.53,38.58,123.87,135.3,26.36,93.26-24.62,166.79-31.07,175.76,30.04-80.64,19.55-164.48-29.6-215.41-23.59-24.44-51.42-36.46-72.8-42.6-2.4,8.84-4.8,17.68-7.2,26.52l-52.8-68.32Z"/>
  <path class="cls-2" d="m69.79,337.5L-5.84,294.85l30.35-11.64c-1.76-9.99-16.48-103.05,52.2-176.19C142.93,36.5,231.91,42.82,242.87,43.79c-84.32,15.39-150.63,67.39-168.98,135.89-8.81,32.88-4.83,63.04.88,84.64,8.79-2.46,17.58-4.92,26.36-7.38l-31.35,80.56Z"/>
  <path class="cls-2" d="m420.98,366.56l.69,87.13-25.12-20.69c-7.76,6.49-80.87,65.52-178.16,41.93-93.81-22.75-132.51-103.48-137.12-113.53,55.15,65.9,133,97.91,201.3,79.92,32.78-8.64,56.87-27.08,72.7-42.78-6.49-6.44-12.97-12.89-19.46-19.33l85.17-12.64Z"/>
  <polygon class="cls-1" points="335.81 379.21 421.67 453.69 420.98 366.56 335.81 379.21"/>
  <polygon class="cls-1" points="334.68 124.64 357.08 12.92 281.87 56.32 334.68 124.64"/>
  <polygon class="cls-1" points="-5.84 294.85 101.14 256.95 69.79 337.5 -5.84 294.85"/>
</svg>